<svg xmlns="http://www.w3.org/2000/svg" viewBox="0 0 64 64">
  <!-- Camera body -->
  <path
    d="M16 22c0-1.1.9-2 2-2h9l2-4c.3-.6.9-1 1.6-1h6.8c.7 0 1.3.4 1.6 1l2 4h9c1.1 0 2 .9 2 2v20c0 1.1-.9 2-2 2H18c-1.1 0-2-.9-2-2V22z"
    fill="#000000"
  />

  <!-- Lens outer -->
  <circle cx="32" cy="32" r="11" fill="#000000" />

  <!-- Lens accent -->
  <circle cx="32" cy="32" r="7" fill="#2d74ff" />

  <!-- Lens center -->
  <circle cx="32" cy="32" r="3.5" fill="#000000" />

  <!-- Viewfinder dot -->
  <circle cx="43" cy="25" r="2.2" fill="#2d74ff" />
</svg>