<svg width="1279" height="678" xmlns="http://www.w3.org/2000/svg"><path d="M-36-26l-23 74 80 6z" fill="#fbffc9" stroke="#fbffc9"/><path d="M-36-26l57 80L68-67z" fill="#fafdcc" stroke="#fafdcc"/><path d="M68-67L21 54l129-7z" fill="#f3fbc6" stroke="#f3fbc6"/><path d="M68-67l82 114 6-107z" fill="#f0f9c8" stroke="#f0f9c8"/><path d="M68-67l88 7 253-10z" fill="#e9f6c8" stroke="#e9f6c8"/><path d="M68-67l341-3 601-8z" fill="#cceab9" stroke="#cceab9"/><path d="M156-60l-6 107 89-100z" fill="#ebf7c5" stroke="#ebf7c5"/><path d="M156-60l83 7 96-8z" fill="#e6f5c5" stroke="#e6f5c5"/><path d="M156-60l179-1 74-9z" fill="#e1f3c4" stroke="#e1f3c4"/><path d="M239-53L150 47l105-22z" fill="#e8f6c0" stroke="#e8f6c0"/><path d="M239-53l16 78 80-86z" fill="#e3f4c1" stroke="#e3f4c1"/><path d="M335-61l-80 86 58 52z" fill="#e0f3bb" stroke="#e0f3bb"/><path d="M335-61L313 77l119-8z" fill="#d9f1b6" stroke="#d9f1b6"/><path d="M335-61l97 130-23-139z" fill="#d9efba" stroke="#d9efba"/><path d="M409-70l23 139 69-93z" fill="#d3edb5" stroke="#d3edb5"/><path d="M409-70l92 46 67-17z" fill="#cdeab6" stroke="#cdeab6"/><path d="M409-70l159 29 226-16z" fill="#bee3b1" stroke="#bee3b1"/><path d="M409-70l385 13 138-18z" fill="#addbaa" stroke="#addbaa"/><path d="M409-70l523-5 78-3z" fill="#a2d6a6" stroke="#a2d6a6"/><path d="M501-24l-69 93 65-35z" fill="#ccebaf" stroke="#ccebaf"/><path d="M501-24l-4 58 71-75z" fill="#c8e8b0" stroke="#c8e8b0"/><path d="M568-41l-71 75 106-3z" fill="#c2e5ac" stroke="#c2e5ac"/><path d="M568-41l35 72 47-63z" fill="#bce2ab" stroke="#bce2ab"/><path d="M568-41l82 9 144-25z" fill="#b3deaa" stroke="#b3deaa"/><path d="M650-32l-47 63 103 15z" fill="#b4dfa5" stroke="#b4dfa5"/><path d="M650-32l56 78 88-103z" fill="#acdba4" stroke="#acdba4"/><path d="M794-57L706 46l89-5z" fill="#a4d79e" stroke="#a4d79e"/><path d="M794-57l1 98 56-58z" fill="#9ed49d" stroke="#9ed49d"/><path d="M794-57l57 40 81-58z" fill="#97d19e" stroke="#97d19e"/><path d="M851-17l-56 58 89 7z" fill="#97d296" stroke="#97d296"/><path d="M851-17l33 65 86-17z" fill="#8fce93" stroke="#8fce93"/><path d="M851-17l119 48-38-106z" fill="#8fcd97" stroke="#8fcd97"/><path d="M932-75l38 106 40-109z" fill="#87c995" stroke="#87c995"/><path d="M1010-78L970 31l37 28z" fill="#83c88f" stroke="#83c88f"/><path d="M1010-78l-3 137 97-35z" fill="#80c48c" stroke="#80c48c"/><path d="M1010-78l94 102 23-49z" fill="#80c28c" stroke="#80c28c"/><path d="M1010-78l117 53 110-21z" fill="#80bf8c" stroke="#80bf8c"/><path d="M1010-78l227 32 164-14z" fill="#80b987" stroke="#80b987"/><path d="M1127-25l-23 49 135 11z" fill="#7fbd83" stroke="#7fbd83"/><path d="M1127-25l112 60-2-81z" fill="#80ba83" stroke="#80ba83"/><path d="M1237-46l2 81 47-57z" fill="#80b67f" stroke="#80b67f"/><path d="M1237-46l49 24 115-38z" fill="#80b27f" stroke="#80b27f"/><path d="M1286-22l-47 57 99-24z" fill="#7fb47a" stroke="#7fb47a"/><path d="M1286-22l52 33 63-71z" fill="#80b07a" stroke="#80b07a"/><path d="M1401-60l-63 71 71 62z" fill="#7fad74" stroke="#7fad74"/><path d="M-59 48l-8 186 43-103z" fill="#f0ffbe" stroke="#f0ffbe"/><path d="M-59 48l35 83 45-77z" fill="#f5ffc3" stroke="#f5ffc3"/><path d="M21 54l-45 77 64-14z" fill="#effdbf" stroke="#effdbf"/><path d="M21 54l19 63 110-70z" fill="#edfbbf" stroke="#edfbbf"/><path d="M150 47L40 117l65 28z" fill="#e8faba" stroke="#e8faba"/><path d="M150 47l-45 98 115-16z" fill="#e2f8b7" stroke="#e2f8b7"/><path d="M150 47l70 82 35-104z" fill="#e2f6b9" stroke="#e2f6b9"/><path d="M255 25l-35 104 93-52z" fill="#dcf4b5" stroke="#dcf4b5"/><path d="M313 77l-93 52 111-18z" fill="#d7f3b1" stroke="#d7f3b1"/><path d="M313 77l18 34 101-42z" fill="#d3f1af" stroke="#d3f1af"/><path d="M432 69l-101 42 45 50z" fill="#cef0ab" stroke="#cef0ab"/><path d="M432 69l-56 92 91-11z" fill="#c9eea7" stroke="#c9eea7"/><path d="M432 69l35 81 30-116z" fill="#c8ecaa" stroke="#c8ecaa"/><path d="M497 34l-30 116 151-24z" fill="#bde7a3" stroke="#bde7a3"/><path d="M497 34l121 92-15-95z" fill="#bae4a4" stroke="#bae4a4"/><path d="M603 31l15 95 88-80z" fill="#afe09f" stroke="#afe09f"/><path d="M706 46l-88 80 85 15z" fill="#a6dd99" stroke="#a6dd99"/><path d="M706 46l-3 95 76-36z" fill="#a0da96" stroke="#a0da96"/><path d="M706 46l73 59 16-64z" fill="#9fd898" stroke="#9fd898"/><path d="M795 41l-16 64 105-57z" fill="#96d494" stroke="#96d494"/><path d="M884 48l-105 57 98 49z" fill="#8ed28d" stroke="#8ed28d"/><path d="M884 48l-7 106 47-16z" fill="#86ce89" stroke="#86ce89"/><path d="M884 48l40 90 46-107z" fill="#86cc8b" stroke="#86cc8b"/><path d="M970 31l-46 107 83-79z" fill="#80c988" stroke="#80c988"/><path d="M1007 59l-83 79 146-26z" fill="#78c783" stroke="#78c783"/><path d="M1007 59l63 53 34-88z" fill="#79c383" stroke="#79c383"/><path d="M1104 24l-34 88 137 31z" fill="#76bf7c" stroke="#76bf7c"/><path d="M1104 24l103 119 32-108z" fill="#78bb7b" stroke="#78bb7b"/><path d="M1239 35l-32 108 71-38z" fill="#76b773" stroke="#76b773"/><path d="M1239 35l39 70 60-94z" fill="#7ab475" stroke="#7ab475"/><path d="M1338 11l-60 94 131-32z" fill="#79b070" stroke="#79b070"/><path d="M1409 73l-131 32 132 38z" fill="#74ae69" stroke="#74ae69"/><path d="M-24 131l-43 103 106-40z" fill="#e9feb7" stroke="#e9feb7"/><path d="M-24 131l63 63 1-77z" fill="#eafdb9" stroke="#eafdb9"/><path d="M40 117l-1 77 66-49z" fill="#e5fcb7" stroke="#e5fcb7"/><path d="M105 145l-66 49 123 20z" fill="#defab1" stroke="#defab1"/><path d="M105 145l57 69 58-85z" fill="#dcf8b1" stroke="#dcf8b1"/><path d="M220 129l-58 85 52 38z" fill="#d5f7aa" stroke="#d5f7aa"/><path d="M220 129l-6 123 74-20z" fill="#d0f5a8" stroke="#d0f5a8"/><path d="M220 129l68 103 43-121z" fill="#d2f4ab" stroke="#d2f4ab"/><path d="M331 111l-43 121 88-71z" fill="#ccf2a7" stroke="#ccf2a7"/><path d="M376 161l-88 71 105 17z" fill="#c6f1a1" stroke="#c6f1a1"/><path d="M376 161l17 88 74-99z" fill="#c3efa1" stroke="#c3efa1"/><path d="M467 150l-74 99 125-10z" fill="#baec9b" stroke="#baec9b"/><path d="M467 150l51 89 100-113z" fill="#b4e79b" stroke="#b4e79b"/><path d="M618 126L518 239l82 18z" fill="#aae493" stroke="#aae493"/><path d="M618 126l-18 131 104-58z" fill="#a2e091" stroke="#a2e091"/><path d="M618 126l86 73-1-58z" fill="#a1dd93" stroke="#a1dd93"/><path d="M703 141l1 58 75-94z" fill="#9ada90" stroke="#9ada90"/><path d="M779 105l-75 94 122 22z" fill="#91d78a" stroke="#91d78a"/><path d="M779 105l47 116 51-67z" fill="#8ad388" stroke="#8ad388"/><path d="M877 154l-51 67 135-16z" fill="#7ecf80" stroke="#7ecf80"/><path d="M877 154l84 51-37-67z" fill="#7ccd81" stroke="#7ccd81"/><path d="M924 138l37 67 109-93z" fill="#75c87e" stroke="#75c87e"/><path d="M1070 112l-109 93 74 16z" fill="#6cc679" stroke="#6cc679"/><path d="M1070 112l-35 109 57-68z" fill="#6ec378" stroke="#6ec378"/><path d="M1070 112l22 41 115-10z" fill="#71bf77" stroke="#71bf77"/><path d="M1092 153l-57 68 68 20z" fill="#6ac272" stroke="#6ac272"/><path d="M1092 153l11 88 104-98z" fill="#6cbe71" stroke="#6cbe71"/><path d="M1207 143l-104 98 141-13z" fill="#6abb6b" stroke="#6abb6b"/><path d="M1207 143l37 85 59-38z" fill="#6bb668" stroke="#6bb668"/><path d="M1207 143l96 47-25-85z" fill="#70b56c" stroke="#70b56c"/><path d="M1278 105l25 85 107-47z" fill="#70b167" stroke="#70b167"/><path d="M1410 143l-107 47 97 59z" fill="#6bae5f" stroke="#6bae5f"/><path d="M1410 143l-10 106 12 77z" fill="#63aa57" stroke="#63aa57"/><path d="M-67 234l9 367 1-112z" fill="#a0e293" stroke="#a0e293"/><path d="M-67 234l10 255 5-53z" fill="#b2ea9c" stroke="#b2ea9c"/><path d="M-67 234l15 202 1-148z" fill="#c8f3a6" stroke="#c8f3a6"/><path d="M-67 234l16 54 90-94z" fill="#e1fdb1" stroke="#e1fdb1"/><path d="M39 194l-90 94 92 11z" fill="#d7f9ac" stroke="#d7f9ac"/><path d="M39 194l2 105 91 9z" fill="#cff6a7" stroke="#cff6a7"/><path d="M39 194l93 114 30-94z" fill="#d5f8aa" stroke="#d5f8aa"/><path d="M162 214l-30 94 82-56z" fill="#caf3a4" stroke="#caf3a4"/><path d="M214 252l-82 56 81 39z" fill="#baec9c" stroke="#baec9c"/><path d="M214 252l-1 95 85-24z" fill="#b3ea99" stroke="#b3ea99"/><path d="M214 252l84 71-10-91z" fill="#beee9d" stroke="#beee9d"/><path d="M288 232l10 91 78-5z" fill="#b1e997" stroke="#b1e997"/><path d="M288 232l88 86 17-69z" fill="#b7eb99" stroke="#b7eb99"/><path d="M393 249l-17 69 95-7z" fill="#a9e692" stroke="#a9e692"/><path d="M393 249l78 62 47-72z" fill="#ace693" stroke="#ace693"/><path d="M518 239l-47 72 124-22z" fill="#9de08d" stroke="#9de08d"/><path d="M518 239l77 50 5-32z" fill="#9ddf8c" stroke="#9ddf8c"/><path d="M600 257l-5 32 99 47z" fill="#8ad783" stroke="#8ad783"/><path d="M600 257l94 79 43-96z" fill="#88d683" stroke="#88d683"/><path d="M600 257l137-17-33-41z" fill="#97dc89" stroke="#97dc89"/><path d="M704 199l33 41 89-19z" fill="#8ed886" stroke="#8ed886"/><path d="M737 240l-43 96 85-31z" fill="#7bd07c" stroke="#7bd07c"/><path d="M737 240l42 65 47-84z" fill="#81d27f" stroke="#81d27f"/><path d="M826 221l-47 84 71 14z" fill="#73cc79" stroke="#73cc79"/><path d="M826 221l24 98 111-114z" fill="#74cc79" stroke="#74cc79"/><path d="M961 205L850 319l129-1z" fill="#63c471" stroke="#63c471"/><path d="M961 205l18 113 56-97z" fill="#65c572" stroke="#65c572"/><path d="M1035 221l-56 97 56 16z" fill="#52bd6a" stroke="#52bd6a"/><path d="M1035 221v113l68-93z" fill="#5abe6b" stroke="#5abe6b"/><path d="M1103 241l-68 93 82-34z" fill="#52b865" stroke="#52b865"/><path d="M1103 241l14 59 127-72z" fill="#5db966" stroke="#5db966"/><path d="M1244 228l-127 72 128 8z" fill="#56b25f" stroke="#56b25f"/><path d="M1244 228l1 80 76 5z" fill="#55ad5a" stroke="#55ad5a"/><path d="M1244 228l77 85-18-123z" fill="#61b15f" stroke="#61b15f"/><path d="M1303 190l18 123 79-64z" fill="#5fad5a" stroke="#5fad5a"/><path d="M1400 249l-79 64 91 13z" fill="#50a451" stroke="#50a451"/><path d="M-51 288l-1 148 99-48z" fill="#b5eb9c" stroke="#b5eb9c"/><path d="M-51 288l98 100-6-89z" fill="#c1f0a2" stroke="#c1f0a2"/><path d="M41 299l6 89 85-80z" fill="#baed9e" stroke="#baed9e"/><path d="M132 308l-85 80 82 17z" fill="#ace797" stroke="#ace797"/><path d="M132 308l-3 97 84-58z" fill="#ace796" stroke="#ace796"/><path d="M213 347l-84 58 75-7z" fill="#9fe290" stroke="#9fe290"/><path d="M213 347l-9 51 94-75z" fill="#a4e491" stroke="#a4e491"/><path d="M298 323l-94 75 133 28z" fill="#97df8b" stroke="#97df8b"/><path d="M298 323l39 103 39-108z" fill="#9be08c" stroke="#9be08c"/><path d="M376 318l-39 108 65-45z" fill="#91dc88" stroke="#91dc88"/><path d="M376 318l26 63 69-70z" fill="#9be08b" stroke="#9be08b"/><path d="M471 311l-69 70 81 20z" fill="#8dda85" stroke="#8dda85"/><path d="M471 311l12 90 107-19z" fill="#83d681" stroke="#83d681"/><path d="M471 311l119 71 5-93z" fill="#8ad884" stroke="#8ad884"/><path d="M595 289l-5 93 104-46z" fill="#7dd27e" stroke="#7dd27e"/><path d="M694 336l-104 46 113 39z" fill="#69ca74" stroke="#69ca74"/><path d="M694 336l9 85 32-42z" fill="#62c671" stroke="#62c671"/><path d="M694 336l41 43 44-74z" fill="#6bca75" stroke="#6bca75"/><path d="M779 305l-44 74 115-60z" fill="#66c773" stroke="#66c773"/><path d="M850 319l-115 60 140 61z" fill="#53bf69" stroke="#53bf69"/><path d="M850 319l25 121 77-29z" fill="#44b963" stroke="#44b963"/><path d="M850 319l102 92 27-93z" fill="#4cbc67" stroke="#4cbc67"/><path d="M979 318l-27 93 83-77z" fill="#42b662" stroke="#42b662"/><path d="M1035 334l-83 77 81 25z" fill="#32b05b" stroke="#32b05b"/><path d="M1035 334l-2 102 67-37z" fill="#32ad58" stroke="#32ad58"/><path d="M1035 334l65 65 17-99z" fill="#41b25d" stroke="#41b25d"/><path d="M1117 300l-17 99 123 13z" fill="#38aa55" stroke="#38aa55"/><path d="M1117 300l106 112 22-104z" fill="#42aa56" stroke="#42aa56"/><path d="M1245 308l-22 104 82 13z" fill="#34a14b" stroke="#34a14b"/><path d="M1245 308l60 117 16-112z" fill="#3fa34e" stroke="#3fa34e"/><path d="M1321 313l-16 112 68-17z" fill="#349c46" stroke="#349c46"/><path d="M1321 313l52 95 39-82z" fill="#3f9e49" stroke="#3f9e49"/><path d="M1412 326l-39 82-2 70z" fill="#2d9540" stroke="#2d9540"/><path d="M1412 326l-41 152-3 92z" fill="#1b8e37" stroke="#1b8e37"/><path d="M1412 326l-44 244 5 73z" fill="#09872f" stroke="#09872f"/><path d="M1412 326l-39 317-10 89z" fill="#007f27" stroke="#007f27"/><path d="M-52 436l-5 53 114 22z" fill="#92dc8c" stroke="#92dc8c"/><path d="M-52 436l109 75-10-123z" fill="#9ae08f" stroke="#9ae08f"/><path d="M47 388l10 123 72-106z" fill="#98df8d" stroke="#98df8d"/><path d="M129 405L57 511l85-19z" fill="#8ad987" stroke="#8ad987"/><path d="M129 405l13 87 68-16z" fill="#89d886" stroke="#89d886"/><path d="M129 405l81 71-6-78z" fill="#92dc8a" stroke="#92dc8a"/><path d="M204 398l6 78 106-14z" fill="#86d783" stroke="#86d783"/><path d="M204 398l112 64 21-36z" fill="#87d884" stroke="#87d884"/><path d="M337 426l-21 36 92 29z" fill="#78d17c" stroke="#78d17c"/><path d="M337 426l71 65-6-110z" fill="#7ed47e" stroke="#7ed47e"/><path d="M402 381l6 110 53-24z" fill="#76d17a" stroke="#76d17a"/><path d="M402 381l59 86 22-66z" fill="#7cd37d" stroke="#7cd37d"/><path d="M483 401l-22 66 129 9z" fill="#69ca74" stroke="#69ca74"/><path d="M483 401l107 75v-94z" fill="#6ccc76" stroke="#6ccc76"/><path d="M590 382v94l113-55z" fill="#5fc670" stroke="#5fc670"/><path d="M703 421l-113 55 71 54z" fill="#4cbd66" stroke="#4cbd66"/><path d="M703 421l-42 109 133-23z" fill="#3eb760" stroke="#3eb760"/><path d="M703 421l91 86-59-128z" fill="#4bbc66" stroke="#4bbc66"/><path d="M735 379l59 128 81-67z" fill="#41b861" stroke="#41b861"/><path d="M875 440l-81 67 90-17z" fill="#2daf58" stroke="#2daf58"/><path d="M875 440l9 50 37 3z" fill="#28ad56" stroke="#28ad56"/><path d="M875 440l46 53 31-82z" fill="#2eaf58" stroke="#2eaf58"/><path d="M952 411l-31 82 97-13z" fill="#23aa53" stroke="#23aa53"/><path d="M952 411l66 69 15-44z" fill="#23aa54" stroke="#23aa54"/><path d="M1033 436l-15 44 117-8z" fill="#1aa34d" stroke="#1aa34d"/><path d="M1033 436l102 36-35-73z" fill="#23a54f" stroke="#23a54f"/><path d="M1100 399l35 73 88-60z" fill="#25a24b" stroke="#25a24b"/><path d="M1223 412l-88 60 67 44z" fill="#189a44" stroke="#189a44"/><path d="M1223 412l-21 104 90-23z" fill="#16953e" stroke="#16953e"/><path d="M1223 412l69 81 13-68z" fill="#209741" stroke="#209741"/><path d="M1305 425l-13 68 79-15z" fill="#19913a" stroke="#19913a"/><path d="M1305 425l66 53 2-70z" fill="#22933d" stroke="#22933d"/><path d="M-57 489l-1 112 115-90z" fill="#80d583" stroke="#80d583"/><path d="M57 511l-115 90 100 10z" fill="#7bce7c" stroke="#7bce7c"/><path d="M57 511L42 611l68-18z" fill="#76cd79" stroke="#76cd79"/><path d="M57 511l53 82 32-101z" fill="#76d17e" stroke="#76d17e"/><path d="M142 492l-32 101 133 12z" fill="#6dca75" stroke="#6dca75"/><path d="M142 492l101 113-33-129z" fill="#70ce7a" stroke="#70ce7a"/><path d="M210 476l33 129 50-26z" fill="#66c973" stroke="#66c973"/><path d="M210 476l83 103 23-117z" fill="#70ce79" stroke="#70ce79"/><path d="M316 462l-23 117 115-88z" fill="#68cb75" stroke="#68cb75"/><path d="M408 491l-115 88 122 12z" fill="#5bc46c" stroke="#5bc46c"/><path d="M408 491l7 100 107-39z" fill="#54c26a" stroke="#54c26a"/><path d="M408 491l114 61-61-85z" fill="#5dc66f" stroke="#5dc66f"/><path d="M461 467l61 85 68-76z" fill="#56c36c" stroke="#56c36c"/><path d="M590 476l-68 76 92 28z" fill="#43ba62" stroke="#43ba62"/><path d="M590 476l24 104 47-50z" fill="#3eb860" stroke="#3eb860"/><path d="M661 530l-47 50 43-18z" fill="#37b35a" stroke="#37b35a"/><path d="M661 530l-4 32 111-2z" fill="#30b058" stroke="#30b058"/><path d="M661 530l107 30 26-53z" fill="#2baf57" stroke="#2baf57"/><path d="M794 507l-26 53 75 48z" fill="#20a850" stroke="#20a850"/><path d="M794 507l49 101 41-118z" fill="#1da951" stroke="#1da951"/><path d="M884 490l-41 118 90-12z" fill="#14a149" stroke="#14a149"/><path d="M884 490l49 106-12-103z" fill="#15a54d" stroke="#15a54d"/><path d="M921 493l12 103 69-8z" fill="#0a9d45" stroke="#0a9d45"/><path d="M921 493l81 95 16-108z" fill="#0da149" stroke="#0da149"/><path d="M1018 480l-16 108h129z" fill="#00983f" stroke="#00983f"/><path d="M1018 480l113 108 4-116z" fill="#099a42" stroke="#099a42"/><path d="M1135 472l-4 116 71-72z" fill="#05943d" stroke="#05943d"/><path d="M1202 516l-71 72 91-12z" fill="#008e35" stroke="#008e35"/><path d="M1202 516l20 60 52-21z" fill="#008c33" stroke="#008c33"/><path d="M1202 516l72 39 18-62z" fill="#078e36" stroke="#078e36"/><path d="M1292 493l-18 62 94 15z" fill="#018830" stroke="#018830"/><path d="M1292 493l76 77 3-92z" fill="#098931" stroke="#098931"/><path d="M-58 601l7 196 25-129z" fill="#80c16d" stroke="#80c16d"/><path d="M-58 601l32 67 68-57z" fill="#7dc875" stroke="#7dc875"/><path d="M42 611l-68 57 71 29z" fill="#7ac36e" stroke="#7ac36e"/><path d="M42 611l3 86 56-24z" fill="#76c16c" stroke="#76c16c"/><path d="M42 611l59 62 9-80z" fill="#74c570" stroke="#74c570"/><path d="M110 593l-9 80 116-12z" fill="#6fc16b" stroke="#6fc16b"/><path d="M110 593l107 68 26-56z" fill="#6bc26c" stroke="#6bc26c"/><path d="M243 605l-26 56 108-11z" fill="#65bd65" stroke="#65bd65"/><path d="M243 605l82 45-32-71z" fill="#63bf68" stroke="#63bf68"/><path d="M293 579l32 71 90-59z" fill="#5ebe66" stroke="#5ebe66"/><path d="M415 591l-90 59 67 29z" fill="#5bb85f" stroke="#5bb85f"/><path d="M415 591l-23 88 113-24z" fill="#55b65c" stroke="#55b65c"/><path d="M415 591l90 64 17-103z" fill="#4fb85f" stroke="#4fb85f"/><path d="M522 552l-17 103 101-5z" fill="#46b158" stroke="#46b158"/><path d="M522 552l84 98 8-70z" fill="#40b259" stroke="#40b259"/><path d="M614 580l-8 70 43 7z" fill="#3aaa51" stroke="#3aaa51"/><path d="M614 580l35 77 8-95z" fill="#38ad54" stroke="#38ad54"/><path d="M657 562l-8 95 112 11z" fill="#31a64c" stroke="#31a64c"/><path d="M657 562l104 106 7-108z" fill="#2ba84f" stroke="#2ba84f"/><path d="M768 560l-7 108 82-60z" fill="#22a148" stroke="#22a148"/><path d="M843 608l-82 60 116 35z" fill="#1c983e" stroke="#1c983e"/><path d="M843 608l34 95 36-42z" fill="#15963b" stroke="#15963b"/><path d="M843 608l70 53 20-65z" fill="#12993f" stroke="#12993f"/><path d="M933 596l-20 65 98-17z" fill="#0a933a" stroke="#0a933a"/><path d="M933 596l78 48-9-56z" fill="#06953b" stroke="#06953b"/><path d="M1002 588l9 56 120-56z" fill="#009037" stroke="#009037"/><path d="M1131 588l-120 56 120 14z" fill="#008b31" stroke="#008b31"/><path d="M1131 588v70l91-82z" fill="#008930" stroke="#008930"/><path d="M1222 576l-91 82 92 52z" fill="#008127" stroke="#008127"/><path d="M1222 576l1 134 115-6z" fill="#007a20" stroke="#007a20"/><path d="M1222 576l116 128-64-149z" fill="#008027" stroke="#008027"/><path d="M1274 555l64 149 35-61z" fill="#007a20" stroke="#007a20"/><path d="M1274 555l99 88-5-73z" fill="#007f26" stroke="#007f26"/><path d="M-26 668l-25 129 72-38z" fill="#7db964" stroke="#7db964"/><path d="M-26 668l47 91 24-62z" fill="#7bbc67" stroke="#7bbc67"/><path d="M45 697l-24 62 126-21z" fill="#76b761" stroke="#76b761"/><path d="M45 697l102 41-46-65z" fill="#73ba63" stroke="#73ba63"/><path d="M101 673l46 65 70-77z" fill="#6eba62" stroke="#6eba62"/><path d="M217 661l-70 77 82 14z" fill="#6bb45c" stroke="#6bb45c"/><path d="M217 661l12 91 96-102z" fill="#65b65e" stroke="#65b65e"/><path d="M325 650l-96 102 91 35z" fill="#62af56" stroke="#62af56"/><path d="M325 650l-5 137 76-50z" fill="#5eae54" stroke="#5eae54"/><path d="M325 650l71 87-4-58z" fill="#5cb258" stroke="#5cb258"/><path d="M392 679l4 58 109-82z" fill="#56af54" stroke="#56af54"/><path d="M505 655l-109 82 67 40z" fill="#53a94e" stroke="#53a94e"/><path d="M505 655l-42 122 111 20z" fill="#4aa247" stroke="#4aa247"/><path d="M505 655l69 142 32-147z" fill="#43a54a" stroke="#43a54a"/><path d="M606 650l-32 147 75-140z" fill="#3ca247" stroke="#3ca247"/><path d="M649 657l-75 140h121z" fill="#38993d" stroke="#38993d"/><path d="M649 657l46 140 66-129z" fill="#2f9b40" stroke="#2f9b40"/><path d="M761 668l-66 129 93-7z" fill="#289136" stroke="#289136"/><path d="M761 668l27 122 53-23z" fill="#219034" stroke="#219034"/><path d="M761 668l80 99 36-64z" fill="#1d9236" stroke="#1d9236"/><path d="M877 703l-36 64 115 26z" fill="#13872c" stroke="#13872c"/><path d="M877 703l79 90-43-132z" fill="#108a2f" stroke="#108a2f"/><path d="M913 661l43 132 58-59z" fill="#09862a" stroke="#09862a"/><path d="M913 661l101 73-3-90z" fill="#068c31" stroke="#068c31"/><path d="M1011 644l3 90 117-76z" fill="#00872c" stroke="#00872c"/><path d="M1131 658l-117 76 107 51z" fill="#007e22" stroke="#007e22"/><path d="M1131 658l-10 127 102-75z" fill="#007a1f" stroke="#007a1f"/><path d="M1223 710l-102 75 116-28z" fill="#007318" stroke="#007318"/><path d="M1223 710l14 47 88-7z" fill="#007014" stroke="#007014"/><path d="M1223 710l102 40 13-46z" fill="#007015" stroke="#007015"/><path d="M1338 704l-13 46 38-18z" fill="#006c11" stroke="#006c11"/><path d="M1338 704l25 28 10-89z" fill="#007015" stroke="#007015"/><path d="M-51 797h625l-254-10z" fill="#63a74f" stroke="#63a74f"/><path d="M-51 797l371-10-91-35z" fill="#6dad54" stroke="#6dad54"/><path d="M-51 797l280-45-208 7z" fill="#76b25b" stroke="#76b25b"/><path d="M21 759l208-7-82-14z" fill="#70b25b" stroke="#70b25b"/><path d="M320 787l254 10-111-20z" fill="#53a145" stroke="#53a145"/><path d="M320 787l143-10-67-40z" fill="#5aa64b" stroke="#5aa64b"/><path d="M695 797l261-4-168-3z" fill="#1f872d" stroke="#1f872d"/><path d="M788 790l168 3-115-26z" fill="#17862a" stroke="#17862a"/><path d="M956 793l165-8-107-51z" fill="#007c20" stroke="#007c20"/><path d="M1121 785l204-35-88 7z" fill="#006f13" stroke="#006f13"/></svg>