<svg width="1279" height="678" xmlns="http://www.w3.org/2000/svg"><g><path d="M-36,-26L-59,48L21,54Z" fill="#fbffc9" stroke="#fbffc9"/><path d="M-36,-26L21,54L68,-67Z" fill="#fafdcc" stroke="#fafdcc"/><path d="M68,-67L21,54L150,47Z" fill="#f3fbc6" stroke="#f3fbc6"/><path d="M68,-67L150,47L156,-60Z" fill="#f0f9c8" stroke="#f0f9c8"/><path d="M68,-67L156,-60L409,-70Z" fill="#e9f6c8" stroke="#e9f6c8"/><path d="M68,-67L409,-70L1010,-78Z" fill="#cceab9" stroke="#cceab9"/><path d="M156,-60L150,47L239,-53Z" fill="#ebf7c5" stroke="#ebf7c5"/><path d="M156,-60L239,-53L335,-61Z" fill="#e6f5c5" stroke="#e6f5c5"/><path d="M156,-60L335,-61L409,-70Z" fill="#e1f3c4" stroke="#e1f3c4"/><path d="M239,-53L150,47L255,25Z" fill="#e8f6c0" stroke="#e8f6c0"/><path d="M239,-53L255,25L335,-61Z" fill="#e3f4c1" stroke="#e3f4c1"/><path d="M335,-61L255,25L313,77Z" fill="#e0f3bb" stroke="#e0f3bb"/><path d="M335,-61L313,77L432,69Z" fill="#d9f1b6" stroke="#d9f1b6"/><path d="M335,-61L432,69L409,-70Z" fill="#d9efba" stroke="#d9efba"/><path d="M409,-70L432,69L501,-24Z" fill="#d3edb5" stroke="#d3edb5"/><path d="M409,-70L501,-24L568,-41Z" fill="#cdeab6" stroke="#cdeab6"/><path d="M409,-70L568,-41L794,-57Z" fill="#bee3b1" stroke="#bee3b1"/><path d="M409,-70L794,-57L932,-75Z" fill="#addbaa" stroke="#addbaa"/><path d="M409,-70L932,-75L1010,-78Z" fill="#a2d6a6" stroke="#a2d6a6"/><path d="M501,-24L432,69L497,34Z" fill="#ccebaf" stroke="#ccebaf"/><path d="M501,-24L497,34L568,-41Z" fill="#c8e8b0" stroke="#c8e8b0"/><path d="M568,-41L497,34L603,31Z" fill="#c2e5ac" stroke="#c2e5ac"/><path d="M568,-41L603,31L650,-32Z" fill="#bce2ab" stroke="#bce2ab"/><path d="M568,-41L650,-32L794,-57Z" fill="#b3deaa" stroke="#b3deaa"/><path d="M650,-32L603,31L706,46Z" fill="#b4dfa5" stroke="#b4dfa5"/><path d="M650,-32L706,46L794,-57Z" fill="#acdba4" stroke="#acdba4"/><path d="M794,-57L706,46L795,41Z" fill="#a4d79e" stroke="#a4d79e"/><path d="M794,-57L795,41L851,-17Z" fill="#9ed49d" stroke="#9ed49d"/><path d="M794,-57L851,-17L932,-75Z" fill="#97d19e" stroke="#97d19e"/><path d="M851,-17L795,41L884,48Z" fill="#97d296" stroke="#97d296"/><path d="M851,-17L884,48L970,31Z" fill="#8fce93" stroke="#8fce93"/><path d="M851,-17L970,31L932,-75Z" fill="#8fcd97" stroke="#8fcd97"/><path d="M932,-75L970,31L1010,-78Z" fill="#87c995" stroke="#87c995"/><path d="M1010,-78L970,31L1007,59Z" fill="#83c88f" stroke="#83c88f"/><path d="M1010,-78L1007,59L1104,24Z" fill="#80c48c" stroke="#80c48c"/><path d="M1010,-78L1104,24L1127,-25Z" fill="#80c28c" stroke="#80c28c"/><path d="M1010,-78L1127,-25L1237,-46Z" fill="#80bf8c" stroke="#80bf8c"/><path d="M1010,-78L1237,-46L1401,-60Z" fill="#80b987" stroke="#80b987"/><path d="M1127,-25L1104,24L1239,35Z" fill="#7fbd83" stroke="#7fbd83"/><path d="M1127,-25L1239,35L1237,-46Z" fill="#80ba83" stroke="#80ba83"/><path d="M1237,-46L1239,35L1286,-22Z" fill="#80b67f" stroke="#80b67f"/><path d="M1237,-46L1286,-22L1401,-60Z" fill="#80b27f" stroke="#80b27f"/><path d="M1286,-22L1239,35L1338,11Z" fill="#7fb47a" stroke="#7fb47a"/><path d="M1286,-22L1338,11L1401,-60Z" fill="#80b07a" stroke="#80b07a"/><path d="M1401,-60L1338,11L1409,73Z" fill="#7fad74" stroke="#7fad74"/><path d="M-59,48L-67,234L-24,131Z" fill="#f0ffbe" stroke="#f0ffbe"/><path d="M-59,48L-24,131L21,54Z" fill="#f5ffc3" stroke="#f5ffc3"/><path d="M21,54L-24,131L40,117Z" fill="#effdbf" stroke="#effdbf"/><path d="M21,54L40,117L150,47Z" fill="#edfbbf" stroke="#edfbbf"/><path d="M150,47L40,117L105,145Z" fill="#e8faba" stroke="#e8faba"/><path d="M150,47L105,145L220,129Z" fill="#e2f8b7" stroke="#e2f8b7"/><path d="M150,47L220,129L255,25Z" fill="#e2f6b9" stroke="#e2f6b9"/><path d="M255,25L220,129L313,77Z" fill="#dcf4b5" stroke="#dcf4b5"/><path d="M313,77L220,129L331,111Z" fill="#d7f3b1" stroke="#d7f3b1"/><path d="M313,77L331,111L432,69Z" fill="#d3f1af" stroke="#d3f1af"/><path d="M432,69L331,111L376,161Z" fill="#cef0ab" stroke="#cef0ab"/><path d="M432,69L376,161L467,150Z" fill="#c9eea7" stroke="#c9eea7"/><path d="M432,69L467,150L497,34Z" fill="#c8ecaa" stroke="#c8ecaa"/><path d="M497,34L467,150L618,126Z" fill="#bde7a3" stroke="#bde7a3"/><path d="M497,34L618,126L603,31Z" fill="#bae4a4" stroke="#bae4a4"/><path d="M603,31L618,126L706,46Z" fill="#afe09f" stroke="#afe09f"/><path d="M706,46L618,126L703,141Z" fill="#a6dd99" stroke="#a6dd99"/><path d="M706,46L703,141L779,105Z" fill="#a0da96" stroke="#a0da96"/><path d="M706,46L779,105L795,41Z" fill="#9fd898" stroke="#9fd898"/><path d="M795,41L779,105L884,48Z" fill="#96d494" stroke="#96d494"/><path d="M884,48L779,105L877,154Z" fill="#8ed28d" stroke="#8ed28d"/><path d="M884,48L877,154L924,138Z" fill="#86ce89" stroke="#86ce89"/><path d="M884,48L924,138L970,31Z" fill="#86cc8b" stroke="#86cc8b"/><path d="M970,31L924,138L1007,59Z" fill="#80c988" stroke="#80c988"/><path d="M1007,59L924,138L1070,112Z" fill="#78c783" stroke="#78c783"/><path d="M1007,59L1070,112L1104,24Z" fill="#79c383" stroke="#79c383"/><path d="M1104,24L1070,112L1207,143Z" fill="#76bf7c" stroke="#76bf7c"/><path d="M1104,24L1207,143L1239,35Z" fill="#78bb7b" stroke="#78bb7b"/><path d="M1239,35L1207,143L1278,105Z" fill="#76b773" stroke="#76b773"/><path d="M1239,35L1278,105L1338,11Z" fill="#7ab475" stroke="#7ab475"/><path d="M1338,11L1278,105L1409,73Z" fill="#79b070" stroke="#79b070"/><path d="M1409,73L1278,105L1410,143Z" fill="#74ae69" stroke="#74ae69"/><path d="M-24,131L-67,234L39,194Z" fill="#e9feb7" stroke="#e9feb7"/><path d="M-24,131L39,194L40,117Z" fill="#eafdb9" stroke="#eafdb9"/><path d="M40,117L39,194L105,145Z" fill="#e5fcb7" stroke="#e5fcb7"/><path d="M105,145L39,194L162,214Z" fill="#defab1" stroke="#defab1"/><path d="M105,145L162,214L220,129Z" fill="#dcf8b1" stroke="#dcf8b1"/><path d="M220,129L162,214L214,252Z" fill="#d5f7aa" stroke="#d5f7aa"/><path d="M220,129L214,252L288,232Z" fill="#d0f5a8" stroke="#d0f5a8"/><path d="M220,129L288,232L331,111Z" fill="#d2f4ab" stroke="#d2f4ab"/><path d="M331,111L288,232L376,161Z" fill="#ccf2a7" stroke="#ccf2a7"/><path d="M376,161L288,232L393,249Z" fill="#c6f1a1" stroke="#c6f1a1"/><path d="M376,161L393,249L467,150Z" fill="#c3efa1" stroke="#c3efa1"/><path d="M467,150L393,249L518,239Z" fill="#baec9b" stroke="#baec9b"/><path d="M467,150L518,239L618,126Z" fill="#b4e79b" stroke="#b4e79b"/><path d="M618,126L518,239L600,257Z" fill="#aae493" stroke="#aae493"/><path d="M618,126L600,257L704,199Z" fill="#a2e091" stroke="#a2e091"/><path d="M618,126L704,199L703,141Z" fill="#a1dd93" stroke="#a1dd93"/><path d="M703,141L704,199L779,105Z" fill="#9ada90" stroke="#9ada90"/><path d="M779,105L704,199L826,221Z" fill="#91d78a" stroke="#91d78a"/><path d="M779,105L826,221L877,154Z" fill="#8ad388" stroke="#8ad388"/><path d="M877,154L826,221L961,205Z" fill="#7ecf80" stroke="#7ecf80"/><path d="M877,154L961,205L924,138Z" fill="#7ccd81" stroke="#7ccd81"/><path d="M924,138L961,205L1070,112Z" fill="#75c87e" stroke="#75c87e"/><path d="M1070,112L961,205L1035,221Z" fill="#6cc679" stroke="#6cc679"/><path d="M1070,112L1035,221L1092,153Z" fill="#6ec378" stroke="#6ec378"/><path d="M1070,112L1092,153L1207,143Z" fill="#71bf77" stroke="#71bf77"/><path d="M1092,153L1035,221L1103,241Z" fill="#6ac272" stroke="#6ac272"/><path d="M1092,153L1103,241L1207,143Z" fill="#6cbe71" stroke="#6cbe71"/><path d="M1207,143L1103,241L1244,228Z" fill="#6abb6b" stroke="#6abb6b"/><path d="M1207,143L1244,228L1303,190Z" fill="#6bb668" stroke="#6bb668"/><path d="M1207,143L1303,190L1278,105Z" fill="#70b56c" stroke="#70b56c"/><path d="M1278,105L1303,190L1410,143Z" fill="#70b167" stroke="#70b167"/><path d="M1410,143L1303,190L1400,249Z" fill="#6bae5f" stroke="#6bae5f"/><path d="M1410,143L1400,249L1412,326Z" fill="#63aa57" stroke="#63aa57"/><path d="M-67,234L-58,601L-57,489Z" fill="#a0e293" stroke="#a0e293"/><path d="M-67,234L-57,489L-52,436Z" fill="#b2ea9c" stroke="#b2ea9c"/><path d="M-67,234L-52,436L-51,288Z" fill="#c8f3a6" stroke="#c8f3a6"/><path d="M-67,234L-51,288L39,194Z" fill="#e1fdb1" stroke="#e1fdb1"/><path d="M39,194L-51,288L41,299Z" fill="#d7f9ac" stroke="#d7f9ac"/><path d="M39,194L41,299L132,308Z" fill="#cff6a7" stroke="#cff6a7"/><path d="M39,194L132,308L162,214Z" fill="#d5f8aa" stroke="#d5f8aa"/><path d="M162,214L132,308L214,252Z" fill="#caf3a4" stroke="#caf3a4"/><path d="M214,252L132,308L213,347Z" fill="#baec9c" stroke="#baec9c"/><path d="M214,252L213,347L298,323Z" fill="#b3ea99" stroke="#b3ea99"/><path d="M214,252L298,323L288,232Z" fill="#beee9d" stroke="#beee9d"/><path d="M288,232L298,323L376,318Z" fill="#b1e997" stroke="#b1e997"/><path d="M288,232L376,318L393,249Z" fill="#b7eb99" stroke="#b7eb99"/><path d="M393,249L376,318L471,311Z" fill="#a9e692" stroke="#a9e692"/><path d="M393,249L471,311L518,239Z" fill="#ace693" stroke="#ace693"/><path d="M518,239L471,311L595,289Z" fill="#9de08d" stroke="#9de08d"/><path d="M518,239L595,289L600,257Z" fill="#9ddf8c" stroke="#9ddf8c"/><path d="M600,257L595,289L694,336Z" fill="#8ad783" stroke="#8ad783"/><path d="M600,257L694,336L737,240Z" fill="#88d683" stroke="#88d683"/><path d="M600,257L737,240L704,199Z" fill="#97dc89" stroke="#97dc89"/><path d="M704,199L737,240L826,221Z" fill="#8ed886" stroke="#8ed886"/><path d="M737,240L694,336L779,305Z" fill="#7bd07c" stroke="#7bd07c"/><path d="M737,240L779,305L826,221Z" fill="#81d27f" stroke="#81d27f"/><path d="M826,221L779,305L850,319Z" fill="#73cc79" stroke="#73cc79"/><path d="M826,221L850,319L961,205Z" fill="#74cc79" stroke="#74cc79"/><path d="M961,205L850,319L979,318Z" fill="#63c471" stroke="#63c471"/><path d="M961,205L979,318L1035,221Z" fill="#65c572" stroke="#65c572"/><path d="M1035,221L979,318L1035,334Z" fill="#52bd6a" stroke="#52bd6a"/><path d="M1035,221L1035,334L1103,241Z" fill="#5abe6b" stroke="#5abe6b"/><path d="M1103,241L1035,334L1117,300Z" fill="#52b865" stroke="#52b865"/><path d="M1103,241L1117,300L1244,228Z" fill="#5db966" stroke="#5db966"/><path d="M1244,228L1117,300L1245,308Z" fill="#56b25f" stroke="#56b25f"/><path d="M1244,228L1245,308L1321,313Z" fill="#55ad5a" stroke="#55ad5a"/><path d="M1244,228L1321,313L1303,190Z" fill="#61b15f" stroke="#61b15f"/><path d="M1303,190L1321,313L1400,249Z" fill="#5fad5a" stroke="#5fad5a"/><path d="M1400,249L1321,313L1412,326Z" fill="#50a451" stroke="#50a451"/><path d="M-51,288L-52,436L47,388Z" fill="#b5eb9c" stroke="#b5eb9c"/><path d="M-51,288L47,388L41,299Z" fill="#c1f0a2" stroke="#c1f0a2"/><path d="M41,299L47,388L132,308Z" fill="#baed9e" stroke="#baed9e"/><path d="M132,308L47,388L129,405Z" fill="#ace797" stroke="#ace797"/><path d="M132,308L129,405L213,347Z" fill="#ace796" stroke="#ace796"/><path d="M213,347L129,405L204,398Z" fill="#9fe290" stroke="#9fe290"/><path d="M213,347L204,398L298,323Z" fill="#a4e491" stroke="#a4e491"/><path d="M298,323L204,398L337,426Z" fill="#97df8b" stroke="#97df8b"/><path d="M298,323L337,426L376,318Z" fill="#9be08c" stroke="#9be08c"/><path d="M376,318L337,426L402,381Z" fill="#91dc88" stroke="#91dc88"/><path d="M376,318L402,381L471,311Z" fill="#9be08b" stroke="#9be08b"/><path d="M471,311L402,381L483,401Z" fill="#8dda85" stroke="#8dda85"/><path d="M471,311L483,401L590,382Z" fill="#83d681" stroke="#83d681"/><path d="M471,311L590,382L595,289Z" fill="#8ad884" stroke="#8ad884"/><path d="M595,289L590,382L694,336Z" fill="#7dd27e" stroke="#7dd27e"/><path d="M694,336L590,382L703,421Z" fill="#69ca74" stroke="#69ca74"/><path d="M694,336L703,421L735,379Z" fill="#62c671" stroke="#62c671"/><path d="M694,336L735,379L779,305Z" fill="#6bca75" stroke="#6bca75"/><path d="M779,305L735,379L850,319Z" fill="#66c773" stroke="#66c773"/><path d="M850,319L735,379L875,440Z" fill="#53bf69" stroke="#53bf69"/><path d="M850,319L875,440L952,411Z" fill="#44b963" stroke="#44b963"/><path d="M850,319L952,411L979,318Z" fill="#4cbc67" stroke="#4cbc67"/><path d="M979,318L952,411L1035,334Z" fill="#42b662" stroke="#42b662"/><path d="M1035,334L952,411L1033,436Z" fill="#32b05b" stroke="#32b05b"/><path d="M1035,334L1033,436L1100,399Z" fill="#32ad58" stroke="#32ad58"/><path d="M1035,334L1100,399L1117,300Z" fill="#41b25d" stroke="#41b25d"/><path d="M1117,300L1100,399L1223,412Z" fill="#38aa55" stroke="#38aa55"/><path d="M1117,300L1223,412L1245,308Z" fill="#42aa56" stroke="#42aa56"/><path d="M1245,308L1223,412L1305,425Z" fill="#34a14b" stroke="#34a14b"/><path d="M1245,308L1305,425L1321,313Z" fill="#3fa34e" stroke="#3fa34e"/><path d="M1321,313L1305,425L1373,408Z" fill="#349c46" stroke="#349c46"/><path d="M1321,313L1373,408L1412,326Z" fill="#3f9e49" stroke="#3f9e49"/><path d="M1412,326L1373,408L1371,478Z" fill="#2d9540" stroke="#2d9540"/><path d="M1412,326L1371,478L1368,570Z" fill="#1b8e37" stroke="#1b8e37"/><path d="M1412,326L1368,570L1373,643Z" fill="#09872f" stroke="#09872f"/><path d="M1412,326L1373,643L1363,732Z" fill="#007f27" stroke="#007f27"/><path d="M-52,436L-57,489L57,511Z" fill="#92dc8c" stroke="#92dc8c"/><path d="M-52,436L57,511L47,388Z" fill="#9ae08f" stroke="#9ae08f"/><path d="M47,388L57,511L129,405Z" fill="#98df8d" stroke="#98df8d"/><path d="M129,405L57,511L142,492Z" fill="#8ad987" stroke="#8ad987"/><path d="M129,405L142,492L210,476Z" fill="#89d886" stroke="#89d886"/><path d="M129,405L210,476L204,398Z" fill="#92dc8a" stroke="#92dc8a"/><path d="M204,398L210,476L316,462Z" fill="#86d783" stroke="#86d783"/><path d="M204,398L316,462L337,426Z" fill="#87d884" stroke="#87d884"/><path d="M337,426L316,462L408,491Z" fill="#78d17c" stroke="#78d17c"/><path d="M337,426L408,491L402,381Z" fill="#7ed47e" stroke="#7ed47e"/><path d="M402,381L408,491L461,467Z" fill="#76d17a" stroke="#76d17a"/><path d="M402,381L461,467L483,401Z" fill="#7cd37d" stroke="#7cd37d"/><path d="M483,401L461,467L590,476Z" fill="#69ca74" stroke="#69ca74"/><path d="M483,401L590,476L590,382Z" fill="#6ccc76" stroke="#6ccc76"/><path d="M590,382L590,476L703,421Z" fill="#5fc670" stroke="#5fc670"/><path d="M703,421L590,476L661,530Z" fill="#4cbd66" stroke="#4cbd66"/><path d="M703,421L661,530L794,507Z" fill="#3eb760" stroke="#3eb760"/><path d="M703,421L794,507L735,379Z" fill="#4bbc66" stroke="#4bbc66"/><path d="M735,379L794,507L875,440Z" fill="#41b861" stroke="#41b861"/><path d="M875,440L794,507L884,490Z" fill="#2daf58" stroke="#2daf58"/><path d="M875,440L884,490L921,493Z" fill="#28ad56" stroke="#28ad56"/><path d="M875,440L921,493L952,411Z" fill="#2eaf58" stroke="#2eaf58"/><path d="M952,411L921,493L1018,480Z" fill="#23aa53" stroke="#23aa53"/><path d="M952,411L1018,480L1033,436Z" fill="#23aa54" stroke="#23aa54"/><path d="M1033,436L1018,480L1135,472Z" fill="#1aa34d" stroke="#1aa34d"/><path d="M1033,436L1135,472L1100,399Z" fill="#23a54f" stroke="#23a54f"/><path d="M1100,399L1135,472L1223,412Z" fill="#25a24b" stroke="#25a24b"/><path d="M1223,412L1135,472L1202,516Z" fill="#189a44" stroke="#189a44"/><path d="M1223,412L1202,516L1292,493Z" fill="#16953e" stroke="#16953e"/><path d="M1223,412L1292,493L1305,425Z" fill="#209741" stroke="#209741"/><path d="M1305,425L1292,493L1371,478Z" fill="#19913a" stroke="#19913a"/><path d="M1305,425L1371,478L1373,408Z" fill="#22933d" stroke="#22933d"/><path d="M-57,489L-58,601L57,511Z" fill="#80d583" stroke="#80d583"/><path d="M57,511L-58,601L42,611Z" fill="#7bce7c" stroke="#7bce7c"/><path d="M57,511L42,611L110,593Z" fill="#76cd79" stroke="#76cd79"/><path d="M57,511L110,593L142,492Z" fill="#76d17e" stroke="#76d17e"/><path d="M142,492L110,593L243,605Z" fill="#6dca75" stroke="#6dca75"/><path d="M142,492L243,605L210,476Z" fill="#70ce7a" stroke="#70ce7a"/><path d="M210,476L243,605L293,579Z" fill="#66c973" stroke="#66c973"/><path d="M210,476L293,579L316,462Z" fill="#70ce79" stroke="#70ce79"/><path d="M316,462L293,579L408,491Z" fill="#68cb75" stroke="#68cb75"/><path d="M408,491L293,579L415,591Z" fill="#5bc46c" stroke="#5bc46c"/><path d="M408,491L415,591L522,552Z" fill="#54c26a" stroke="#54c26a"/><path d="M408,491L522,552L461,467Z" fill="#5dc66f" stroke="#5dc66f"/><path d="M461,467L522,552L590,476Z" fill="#56c36c" stroke="#56c36c"/><path d="M590,476L522,552L614,580Z" fill="#43ba62" stroke="#43ba62"/><path d="M590,476L614,580L661,530Z" fill="#3eb860" stroke="#3eb860"/><path d="M661,530L614,580L657,562Z" fill="#37b35a" stroke="#37b35a"/><path d="M661,530L657,562L768,560Z" fill="#30b058" stroke="#30b058"/><path d="M661,530L768,560L794,507Z" fill="#2baf57" stroke="#2baf57"/><path d="M794,507L768,560L843,608Z" fill="#20a850" stroke="#20a850"/><path d="M794,507L843,608L884,490Z" fill="#1da951" stroke="#1da951"/><path d="M884,490L843,608L933,596Z" fill="#14a149" stroke="#14a149"/><path d="M884,490L933,596L921,493Z" fill="#15a54d" stroke="#15a54d"/><path d="M921,493L933,596L1002,588Z" fill="#0a9d45" stroke="#0a9d45"/><path d="M921,493L1002,588L1018,480Z" fill="#0da149" stroke="#0da149"/><path d="M1018,480L1002,588L1131,588Z" fill="#00983f" stroke="#00983f"/><path d="M1018,480L1131,588L1135,472Z" fill="#099a42" stroke="#099a42"/><path d="M1135,472L1131,588L1202,516Z" fill="#05943d" stroke="#05943d"/><path d="M1202,516L1131,588L1222,576Z" fill="#008e35" stroke="#008e35"/><path d="M1202,516L1222,576L1274,555Z" fill="#008c33" stroke="#008c33"/><path d="M1202,516L1274,555L1292,493Z" fill="#078e36" stroke="#078e36"/><path d="M1292,493L1274,555L1368,570Z" fill="#018830" stroke="#018830"/><path d="M1292,493L1368,570L1371,478Z" fill="#098931" stroke="#098931"/><path d="M-58,601L-51,797L-26,668Z" fill="#80c16d" stroke="#80c16d"/><path d="M-58,601L-26,668L42,611Z" fill="#7dc875" stroke="#7dc875"/><path d="M42,611L-26,668L45,697Z" fill="#7ac36e" stroke="#7ac36e"/><path d="M42,611L45,697L101,673Z" fill="#76c16c" stroke="#76c16c"/><path d="M42,611L101,673L110,593Z" fill="#74c570" stroke="#74c570"/><path d="M110,593L101,673L217,661Z" fill="#6fc16b" stroke="#6fc16b"/><path d="M110,593L217,661L243,605Z" fill="#6bc26c" stroke="#6bc26c"/><path d="M243,605L217,661L325,650Z" fill="#65bd65" stroke="#65bd65"/><path d="M243,605L325,650L293,579Z" fill="#63bf68" stroke="#63bf68"/><path d="M293,579L325,650L415,591Z" fill="#5ebe66" stroke="#5ebe66"/><path d="M415,591L325,650L392,679Z" fill="#5bb85f" stroke="#5bb85f"/><path d="M415,591L392,679L505,655Z" fill="#55b65c" stroke="#55b65c"/><path d="M415,591L505,655L522,552Z" fill="#4fb85f" stroke="#4fb85f"/><path d="M522,552L505,655L606,650Z" fill="#46b158" stroke="#46b158"/><path d="M522,552L606,650L614,580Z" fill="#40b259" stroke="#40b259"/><path d="M614,580L606,650L649,657Z" fill="#3aaa51" stroke="#3aaa51"/><path d="M614,580L649,657L657,562Z" fill="#38ad54" stroke="#38ad54"/><path d="M657,562L649,657L761,668Z" fill="#31a64c" stroke="#31a64c"/><path d="M657,562L761,668L768,560Z" fill="#2ba84f" stroke="#2ba84f"/><path d="M768,560L761,668L843,608Z" fill="#22a148" stroke="#22a148"/><path d="M843,608L761,668L877,703Z" fill="#1c983e" stroke="#1c983e"/><path d="M843,608L877,703L913,661Z" fill="#15963b" stroke="#15963b"/><path d="M843,608L913,661L933,596Z" fill="#12993f" stroke="#12993f"/><path d="M933,596L913,661L1011,644Z" fill="#0a933a" stroke="#0a933a"/><path d="M933,596L1011,644L1002,588Z" fill="#06953b" stroke="#06953b"/><path d="M1002,588L1011,644L1131,588Z" fill="#009037" stroke="#009037"/><path d="M1131,588L1011,644L1131,658Z" fill="#008b31" stroke="#008b31"/><path d="M1131,588L1131,658L1222,576Z" fill="#008930" stroke="#008930"/><path d="M1222,576L1131,658L1223,710Z" fill="#008127" stroke="#008127"/><path d="M1222,576L1223,710L1338,704Z" fill="#007a20" stroke="#007a20"/><path d="M1222,576L1338,704L1274,555Z" fill="#008027" stroke="#008027"/><path d="M1274,555L1338,704L1373,643Z" fill="#007a20" stroke="#007a20"/><path d="M1274,555L1373,643L1368,570Z" fill="#007f26" stroke="#007f26"/><path d="M-26,668L-51,797L21,759Z" fill="#7db964" stroke="#7db964"/><path d="M-26,668L21,759L45,697Z" fill="#7bbc67" stroke="#7bbc67"/><path d="M45,697L21,759L147,738Z" fill="#76b761" stroke="#76b761"/><path d="M45,697L147,738L101,673Z" fill="#73ba63" stroke="#73ba63"/><path d="M101,673L147,738L217,661Z" fill="#6eba62" stroke="#6eba62"/><path d="M217,661L147,738L229,752Z" fill="#6bb45c" stroke="#6bb45c"/><path d="M217,661L229,752L325,650Z" fill="#65b65e" stroke="#65b65e"/><path d="M325,650L229,752L320,787Z" fill="#62af56" stroke="#62af56"/><path d="M325,650L320,787L396,737Z" fill="#5eae54" stroke="#5eae54"/><path d="M325,650L396,737L392,679Z" fill="#5cb258" stroke="#5cb258"/><path d="M392,679L396,737L505,655Z" fill="#56af54" stroke="#56af54"/><path d="M505,655L396,737L463,777Z" fill="#53a94e" stroke="#53a94e"/><path d="M505,655L463,777L574,797Z" fill="#4aa247" stroke="#4aa247"/><path d="M505,655L574,797L606,650Z" fill="#43a54a" stroke="#43a54a"/><path d="M606,650L574,797L649,657Z" fill="#3ca247" stroke="#3ca247"/><path d="M649,657L574,797L695,797Z" fill="#38993d" stroke="#38993d"/><path d="M649,657L695,797L761,668Z" fill="#2f9b40" stroke="#2f9b40"/><path d="M761,668L695,797L788,790Z" fill="#289136" stroke="#289136"/><path d="M761,668L788,790L841,767Z" fill="#219034" stroke="#219034"/><path d="M761,668L841,767L877,703Z" fill="#1d9236" stroke="#1d9236"/><path d="M877,703L841,767L956,793Z" fill="#13872c" stroke="#13872c"/><path d="M877,703L956,793L913,661Z" fill="#108a2f" stroke="#108a2f"/><path d="M913,661L956,793L1014,734Z" fill="#09862a" stroke="#09862a"/><path d="M913,661L1014,734L1011,644Z" fill="#068c31" stroke="#068c31"/><path d="M1011,644L1014,734L1131,658Z" fill="#00872c" stroke="#00872c"/><path d="M1131,658L1014,734L1121,785Z" fill="#007e22" stroke="#007e22"/><path d="M1131,658L1121,785L1223,710Z" fill="#007a1f" stroke="#007a1f"/><path d="M1223,710L1121,785L1237,757Z" fill="#007318" stroke="#007318"/><path d="M1223,710L1237,757L1325,750Z" fill="#007014" stroke="#007014"/><path d="M1223,710L1325,750L1338,704Z" fill="#007015" stroke="#007015"/><path d="M1338,704L1325,750L1363,732Z" fill="#006c11" stroke="#006c11"/><path d="M1338,704L1363,732L1373,643Z" fill="#007015" stroke="#007015"/><path d="M-51,797L574,797L320,787Z" fill="#63a74f" stroke="#63a74f"/><path d="M-51,797L320,787L229,752Z" fill="#6dad54" stroke="#6dad54"/><path d="M-51,797L229,752L21,759Z" fill="#76b25b" stroke="#76b25b"/><path d="M21,759L229,752L147,738Z" fill="#70b25b" stroke="#70b25b"/><path d="M320,787L574,797L463,777Z" fill="#53a145" stroke="#53a145"/><path d="M320,787L463,777L396,737Z" fill="#5aa64b" stroke="#5aa64b"/><path d="M695,797L956,793L788,790Z" fill="#1f872d" stroke="#1f872d"/><path d="M788,790L956,793L841,767Z" fill="#17862a" stroke="#17862a"/><path d="M956,793L1121,785L1014,734Z" fill="#007c20" stroke="#007c20"/><path d="M1121,785L1325,750L1237,757Z" fill="#006f13" stroke="#006f13"/></g></svg>