<svg xmlns="http://www.w3.org/2000/svg" width="120" height="120" viewBox="0 0 120 120"><path fill="#4e4e4e" d="M60.135 5.33C29.147 5.33 4.02 30.456 4.02 61.454c0 24.79 16.078 45.825 38.38 53.246 2.81.512 3.832-1.217 3.832-2.705 0-1.333-.048-4.86-.076-9.546-15.61 3.39-18.903-7.525-18.903-7.525-2.553-6.483-6.232-8.21-6.232-8.21-5.094-3.482.387-3.41.387-3.41 5.633.396 8.595 5.784 8.595 5.784 5.006 8.574 13.132 6.1 16.333 4.663.51-3.628 1.96-6.1 3.562-7.503-12.46-1.416-25.562-6.232-25.562-27.736 0-6.125 2.188-11.134 5.777-15.058-.575-1.42-2.505-7.124.55-14.85 0 0 4.714-1.51 15.43 5.752 4.476-1.244 9.278-1.867 14.05-1.888 4.764.02 9.567.644 14.05 1.888 10.713-7.262 15.415-5.753 15.415-5.753 3.063 7.727 1.137 13.432.558 14.85 3.597 3.925 5.767 8.934 5.767 15.06 0 21.558-13.122 26.3-25.624 27.69 2.015 1.733 3.81 5.157 3.81 10.394 0 7.502-.07 13.555-.07 15.395 0 1.502 1.01 3.245 3.86 2.697 22.278-7.434 38.342-28.456 38.342-53.24.003-30.997-25.124-56.12-56.115-56.12z"/></svg>