<?xml version="1.0" encoding="utf-8"?>
<!-- Generator: Adobe Illustrator 17.0.2, SVG Export Plug-In . SVG Version: 6.00 Build 0)  -->
<!DOCTYPE svg PUBLIC "-//W3C//DTD SVG 1.1//EN" "http://www.w3.org/Graphics/SVG/1.1/DTD/svg11.dtd">
<svg version="1.1" id="Layer_1" xmlns="http://www.w3.org/2000/svg" xmlns:xlink="http://www.w3.org/1999/xlink" x="0px" y="0px"
	 width="120px" height="120px" viewBox="0 0 120 120" enable-background="new 0 0 120 120" xml:space="preserve">
<path fill="#4e4e4e" d="M60.135,5.331c-30.988,0-56.115,25.124-56.115,56.122c0,24.79,16.078,45.825,38.381,53.246
	c2.808,0.513,3.831-1.216,3.831-2.704c0-1.333-0.048-4.861-0.076-9.546c-15.609,3.39-18.903-7.524-18.903-7.524
	c-2.553-6.483-6.232-8.209-6.232-8.209c-5.095-3.483,0.386-3.411,0.386-3.411c5.633,0.396,8.595,5.784,8.595,5.784
	c5.006,8.575,13.132,6.101,16.333,4.664c0.51-3.628,1.96-6.101,3.562-7.503c-12.46-1.416-25.562-6.232-25.562-27.736
	c0-6.125,2.188-11.134,5.777-15.058c-0.575-1.419-2.505-7.124,0.551-14.851c0,0,4.713-1.509,15.43,5.753
	c4.475-1.244,9.277-1.867,14.049-1.888c4.764,0.021,9.567,0.644,14.049,1.888c10.714-7.262,15.416-5.753,15.416-5.753
	c3.063,7.727,1.137,13.432,0.558,14.851c3.597,3.924,5.767,8.933,5.767,15.058c0,21.559-13.122,26.302-25.624,27.691
	c2.015,1.733,3.81,5.157,3.81,10.394c0,7.503-0.069,13.556-0.069,15.396c0,1.502,1.009,3.245,3.858,2.697
	c22.279-7.434,38.343-28.456,38.343-53.239C116.253,30.455,91.126,5.331,60.135,5.331z"/>
</svg>
