<?xml version="1.0" encoding="utf-8"?>
<!-- Generator: Adobe Illustrator 17.0.2, SVG Export Plug-In . SVG Version: 6.00 Build 0)  -->
<!DOCTYPE svg PUBLIC "-//W3C//DTD SVG 1.1//EN" "http://www.w3.org/Graphics/SVG/1.1/DTD/svg11.dtd">
<svg version="1.1" id="Layer_1" xmlns="http://www.w3.org/2000/svg" xmlns:xlink="http://www.w3.org/1999/xlink" x="0px" y="0px"
	 width="120px" height="120px" viewBox="0 0 120 120" enable-background="new 0 0 120 120" xml:space="preserve">
<path fill="#4e4e4e" d="M7.486,40.742h22.517v72.418H7.486V40.742z M18.746,4.739c7.196,0,13.044,5.848,13.044,13.047
	c0,7.207-5.848,13.055-13.044,13.055c-7.215,0-13.047-5.848-13.047-13.055C5.699,10.587,11.531,4.739,18.746,4.739"/>
<path fill="#4e4e4e" d="M44.12,40.742h21.592v9.891h0.307c3.005-5.692,10.349-11.696,21.299-11.696
	c22.775,0,26.982,14.995,26.982,34.502v39.721H91.819V77.944c0-8.403-0.165-19.205-11.699-19.205
	c-11.713,0-13.499,9.15-13.499,18.596v35.825H44.12V40.742z"/>
</svg>
