<svg xmlns="http://www.w3.org/2000/svg" width="120" height="120" viewBox="0 0 120 120"><path fill="#4e4e4e" d="M7.486 40.742h22.517v72.418H7.486V40.742zM18.746 4.74c7.196 0 13.044 5.847 13.044 13.046 0 7.207-5.848 13.055-13.044 13.055C11.53 30.84 5.7 24.994 5.7 17.787c0-7.2 5.83-13.047 13.046-13.047"/><path fill="#4e4e4e" d="M44.12 40.742h21.592v9.89h.307c3.004-5.69 10.348-11.695 21.298-11.695 22.775 0 26.982 14.995 26.982 34.502v39.72H91.82V77.944c0-8.403-.166-19.205-11.7-19.205-11.713 0-13.5 9.15-13.5 18.595v35.825h-22.5V40.742z"/></svg>